<mxfile host="drawio-plugin" modified="2023-05-02T22:24:33.423Z" agent="5.0 (Windows NT 6.2; Win64; x64) AppleWebKit/537.36 (KHTML, like Gecko) Chrome/98.0.4758.102 Safari/537.36" etag="E2547MRUkuLPWUkCwslE" version="20.5.3" type="embed"><diagram id="23iRSUPoRavnBvh4doch" name="Page-1"><mxGraphModel dx="612" dy="528" grid="1" gridSize="10" guides="1" tooltips="1" connect="1" arrows="1" fold="1" page="1" pageScale="1" pageWidth="827" pageHeight="1169" math="0" shadow="0"><root><mxCell id="0"/><mxCell id="1" parent="0"/><mxCell id="2" value="WaterNodePlayerEnter" style="shape=umlFrame;whiteSpace=wrap;html=1;width=140;height=30;" vertex="1" parent="1"><mxGeometry x="210" y="80" width="390" height="320" as="geometry"/></mxCell><mxCell id="3" value="" style="ellipse;fillColor=strokeColor;" vertex="1" parent="1"><mxGeometry x="260" y="120" width="30" height="30" as="geometry"/></mxCell><mxCell id="4" value="" style="ellipse;html=1;shape=endState;fillColor=strokeColor;" vertex="1" parent="1"><mxGeometry x="260" y="320" width="30" height="30" as="geometry"/></mxCell><mxCell id="5" value="" style="endArrow=classic;html=1;rounded=0;exitX=0.5;exitY=1;exitDx=0;exitDy=0;entryX=0.5;entryY=0;entryDx=0;entryDy=0;" edge="1" parent="1" source="3" target="6"><mxGeometry width="50" height="50" relative="1" as="geometry"><mxPoint x="290" y="300" as="sourcePoint"/><mxPoint x="340" y="250" as="targetPoint"/></mxGeometry></mxCell><mxCell id="6" value="" style="rhombus;whiteSpace=wrap;html=1;" vertex="1" parent="1"><mxGeometry x="252.5" y="210" width="45" height="40" as="geometry"/></mxCell><mxCell id="7" value="" style="endArrow=classic;html=1;rounded=0;exitX=0.5;exitY=1;exitDx=0;exitDy=0;entryX=0.5;entryY=0;entryDx=0;entryDy=0;" edge="1" parent="1" source="6" target="4"><mxGeometry width="50" height="50" relative="1" as="geometry"><mxPoint x="290" y="300" as="sourcePoint"/><mxPoint x="340" y="250" as="targetPoint"/></mxGeometry></mxCell><mxCell id="8" value="[else]" style="text;html=1;strokeColor=none;fillColor=none;align=center;verticalAlign=middle;whiteSpace=wrap;rounded=0;" vertex="1" parent="1"><mxGeometry x="270" y="270" width="60" height="30" as="geometry"/></mxCell><mxCell id="9" value="add player to the Model.WaterNode" style="rounded=1;whiteSpace=wrap;html=1;" vertex="1" parent="1"><mxGeometry x="450" y="215" width="120" height="30" as="geometry"/></mxCell><mxCell id="10" value="" style="endArrow=classic;html=1;rounded=0;exitX=1;exitY=0.5;exitDx=0;exitDy=0;entryX=0;entryY=0.5;entryDx=0;entryDy=0;" edge="1" parent="1" source="6" target="9"><mxGeometry width="50" height="50" relative="1" as="geometry"><mxPoint x="290" y="300" as="sourcePoint"/><mxPoint x="340" y="250" as="targetPoint"/></mxGeometry></mxCell><mxCell id="11" value="[player is not on the map or is on a neighbouring pipe]&amp;nbsp;" style="text;html=1;strokeColor=none;fillColor=none;align=center;verticalAlign=middle;whiteSpace=wrap;rounded=0;" vertex="1" parent="1"><mxGeometry x="297.5" y="180" width="150" height="50" as="geometry"/></mxCell><mxCell id="12" style="edgeStyle=orthogonalEdgeStyle;rounded=0;orthogonalLoop=1;jettySize=auto;html=1;exitX=0.5;exitY=1;exitDx=0;exitDy=0;" edge="1" parent="1" source="9" target="9"><mxGeometry relative="1" as="geometry"/></mxCell><mxCell id="14" value="" style="endArrow=classic;html=1;rounded=0;exitX=0.5;exitY=1;exitDx=0;exitDy=0;entryX=1;entryY=0.5;entryDx=0;entryDy=0;" edge="1" parent="1" source="9" target="4"><mxGeometry width="50" height="50" relative="1" as="geometry"><mxPoint x="290" y="250" as="sourcePoint"/><mxPoint x="340" y="200" as="targetPoint"/><Array as="points"><mxPoint x="510" y="335"/></Array></mxGeometry></mxCell></root></mxGraphModel></diagram></mxfile>